<?xml version="1.0" standalone="no"?>
<!DOCTYPE svg PUBLIC "-//W3C//DTD SVG 20010904//EN"
 "http://www.w3.org/TR/2001/REC-SVG-20010904/DTD/svg10.dtd">
<svg version="1.0" xmlns="http://www.w3.org/2000/svg"
 width="383.000000pt" height="383.000000pt" viewBox="0 0 383.000000 383.000000"
 preserveAspectRatio="xMidYMid meet">
<metadata>
Created by potrace 1.14, written by Peter Selinger 2001-2017
</metadata>
<g transform="translate(0.000000,383.000000) scale(0.100000,-0.100000)"
fill="#000000" stroke="none">
<path d="M1852 2931 c-52 -28 -64 -48 -64 -111 0 -56 6 -89 14 -84 4 3 8 0 8
-5 0 -6 7 -11 15 -11 8 0 19 -9 25 -21 9 -15 15 -18 25 -9 10 8 14 7 18 -2 4
-9 6 -9 6 2 1 12 3 13 10 1 7 -10 13 -11 30 -1 20 10 23 9 28 -9 7 -28 22 -27
17 2 -2 12 -2 16 2 10 3 -7 21 -13 39 -13 19 0 37 -4 40 -10 3 -5 12 -10 18
-10 7 0 6 4 -3 10 -19 12 -5 13 18 1 9 -6 29 -12 45 -16 15 -3 27 -12 27 -20
0 -8 5 -15 11 -15 6 0 8 7 5 16 -5 14 -4 15 9 4 14 -12 14 -15 -2 -32 -16 -18
-17 -18 -30 4 -7 13 -12 19 -13 15 -1 -27 22 -45 51 -42 26 4 29 2 19 -10 -7
-8 -17 -12 -23 -8 -6 3 -7 1 -3 -5 8 -13 36 -5 36 10 0 5 5 6 12 2 7 -5 5 -12
-8 -22 -16 -12 -16 -14 -2 -9 10 3 20 2 23 -3 4 -6 0 -10 -7 -10 -10 0 -9 -3
1 -9 17 -11 75 15 66 29 -3 5 -2 11 3 14 4 2 8 -6 8 -19 0 -13 -3 -22 -7 -19
-4 2 -10 -3 -13 -12 -3 -8 -11 -12 -17 -8 -8 4 -9 3 -5 -5 9 -15 38 -10 52 8
9 11 12 12 19 1 5 -8 4 -11 -2 -7 -5 4 -16 -4 -23 -18 -11 -21 -15 -22 -27 -9
-8 8 -19 11 -25 8 -6 -4 -8 -2 -5 3 4 7 -12 16 -38 24 -25 7 -45 19 -45 26 0
6 -4 15 -10 18 -6 4 -7 -1 -4 -12 5 -17 5 -17 -9 0 -11 13 -16 15 -19 5 -4
-11 -8 -11 -20 0 -9 7 -30 14 -47 15 -17 1 -31 5 -31 8 0 11 -144 15 -200 6
-14 -3 -29 -5 -33 -6 -5 0 -5 -5 -2 -11 3 -5 1 -10 -4 -10 -6 0 -11 -8 -11
-17 0 -16 -2 -16 -11 -3 -8 12 -10 12 -8 -5 1 -11 -1 -28 -6 -38 -4 -10 -2
-23 4 -31 8 -10 9 -16 1 -21 -10 -6 -14 1 -10 20 1 6 -2 6 -6 2 -10 -10 -14
-37 -6 -36 4 1 14 1 22 -1 11 -1 9 -4 -5 -10 -14 -6 -15 -9 -5 -9 30 -2 58
-101 28 -101 -5 0 -6 5 -3 10 4 6 3 10 -2 9 -19 -3 -34 2 -28 10 3 6 -8 8 -26
6 -18 -3 -29 -2 -26 2 9 8 -12 45 -23 38 -4 -3 -11 0 -13 5 -3 6 -4 5 -2 -2 1
-7 7 -12 13 -11 5 1 13 -5 16 -13 5 -12 2 -15 -9 -10 -9 3 -14 2 -11 -3 3 -5
-1 -12 -10 -15 -12 -4 -14 -1 -9 13 4 14 0 23 -15 31 -13 7 -20 7 -20 0 0 -5
7 -10 15 -10 8 0 15 -4 15 -10 0 -17 -28 -11 -39 8 -6 9 -10 13 -10 7 0 -13
25 -46 36 -46 4 -1 9 -2 11 -3 1 -2 -7 -3 -18 -2 -11 0 -30 15 -41 31 -12 17
-19 22 -16 13 3 -9 3 -19 -1 -21 -4 -2 -1 -2 6 0 9 2 11 -3 7 -17 -6 -20 2
-25 34 -20 13 1 13 -1 2 -14 -10 -12 -11 -19 -2 -30 9 -11 6 -13 -14 -13 -21
0 -23 2 -13 14 16 19 -8 36 -33 23 -12 -7 -21 -5 -30 7 -12 14 -12 16 2 11 19
-7 47 8 35 19 -5 4 -11 3 -13 -4 -3 -8 -17 0 -40 20 -19 18 -38 32 -41 32 -4
0 -18 8 -32 18 -13 9 -21 17 -17 17 3 0 2 12 -3 26 -8 19 -7 24 3 19 6 -4 4 0
-5 8 -13 11 -15 16 -5 26 9 9 7 13 -11 17 -13 4 -22 14 -22 26 0 10 -4 17 -9
13 -6 -3 -13 0 -18 8 -8 13 -69 35 -108 39 -32 3 -87 -13 -116 -34 -30 -23
-73 -93 -64 -107 3 -5 2 -12 -2 -14 -5 -3 -8 -185 -8 -404 1 -219 -2 -405 -7
-414 -4 -9 -4 -20 0 -23 4 -4 8 -26 9 -49 1 -45 9 -96 18 -131 16 -55 65 -152
88 -173 9 -9 17 -22 17 -30 0 -7 3 -13 8 -13 4 0 24 -15 44 -34 21 -19 57 -45
80 -58 24 -12 45 -26 46 -30 2 -5 14 -8 26 -8 13 0 26 -3 30 -7 4 -5 12 -9 17
-9 5 -1 10 -2 12 -4 21 -17 234 -19 287 -2 78 24 150 55 150 64 0 4 7 8 15 8
8 0 15 5 15 10 0 6 5 10 10 10 6 0 25 15 43 33 41 41 101 117 92 117 -3 0 0 7
9 15 15 15 51 103 62 152 8 39 8 180 0 226 -11 56 -56 167 -69 167 -5 0 -5 5
-2 10 3 6 1 10 -6 10 -7 0 -10 2 -7 5 3 3 -8 20 -23 36 -16 17 -26 36 -22 43
3 6 3 8 -2 4 -4 -4 -15 0 -24 10 -9 10 -31 28 -49 41 -18 12 -30 26 -27 31 3
4 -4 6 -15 3 -15 -4 -20 0 -21 13 0 11 -3 14 -6 7 -3 -10 -7 -10 -18 0 -7 7
-10 17 -7 22 3 6 -3 3 -13 -5 -17 -14 -18 -13 -12 4 6 16 5 17 -7 7 -11 -9
-16 -9 -22 0 -5 8 -3 9 6 4 9 -5 11 -4 6 4 -6 9 -11 9 -24 -1 -13 -11 -14 -11
-8 1 7 10 3 12 -13 6 -14 -4 -21 -2 -21 6 0 7 -3 10 -6 6 -8 -8 -33 16 -27 26
3 4 11 3 19 -4 19 -15 18 -2 -1 17 -18 19 -20 34 -2 30 6 -1 9 -1 5 1 -13 8
-9 20 7 20 8 0 15 -6 15 -12 0 -7 8 -19 18 -26 15 -13 16 -12 4 3 -8 9 -12 25
-9 35 3 15 6 13 15 -9 8 -19 16 -26 27 -22 8 3 15 8 15 11 0 3 -6 3 -14 0 -19
-7 -29 32 -13 52 9 12 9 13 0 7 -7 -4 -13 -3 -13 3 0 14 14 21 25 13 14 -10
17 -32 5 -32 -5 0 -10 -4 -10 -9 0 -8 8 -8 39 -2 2 1 -2 8 -9 16 -15 18 1 20
18 3 8 -8 15 -8 26 2 13 10 17 9 22 -4 5 -12 11 -9 32 16 18 21 23 33 14 36
-7 2 -10 8 -6 13 3 5 0 8 -8 7 -7 -2 -13 6 -13 16 0 11 8 20 18 22 12 1 17 -2
14 -10 -3 -7 -1 -19 4 -27 8 -11 9 -10 7 5 -2 10 3 21 11 24 9 3 11 0 6 -9 -6
-11 -5 -11 5 -2 8 7 22 8 40 3 16 -5 31 -6 34 -2 3 3 6 0 6 -6 0 -5 -5 -12
-11 -14 -7 -2 -7 -11 1 -28 8 -19 10 -20 7 -4 -2 11 2 29 11 40 14 18 14 18 9
-4 -4 -19 -3 -21 9 -11 11 9 14 8 14 -2 0 -11 2 -11 10 1 7 11 10 11 10 2 0
-7 4 -11 9 -7 5 3 13 0 17 -6 5 -8 3 -9 -6 -4 -9 6 -11 4 -6 -4 5 -7 15 -10
23 -7 8 3 11 1 8 -4 -3 -6 -2 -10 4 -10 6 0 20 -10 32 -22 12 -13 19 -18 16
-12 -3 6 0 11 7 11 8 0 12 -6 9 -14 -3 -7 0 -13 7 -13 16 0 40 -26 40 -44 0
-9 5 -16 11 -16 5 0 7 -4 4 -10 -3 -6 1 -7 9 -4 19 7 22 -12 4 -20 -7 -4 -4
-5 8 -2 12 2 21 -2 21 -10 0 -7 -5 -11 -11 -8 -6 3 0 -4 14 -16 14 -12 19 -19
13 -15 -7 3 -13 1 -13 -4 0 -6 5 -11 11 -11 5 0 7 -4 4 -10 -3 -5 -2 -10 4
-10 5 0 8 -9 6 -20 -2 -11 0 -20 4 -20 13 0 21 -39 10 -46 -5 -3 -6 -10 -3
-16 4 -6 8 -21 10 -32 8 -70 17 -93 46 -118 17 -16 37 -29 44 -29 8 -1 20 -2
27 -3 61 -9 148 63 131 108 -3 9 -2 16 3 16 5 0 7 21 3 50 -4 28 -4 50 -1 50
2 0 13 -8 24 -17 11 -10 17 -13 14 -7 -8 14 18 37 42 39 10 1 18 -3 18 -9 0
-6 4 -20 9 -31 7 -19 6 -19 -12 -5 -17 14 -18 13 -7 -1 7 -9 9 -20 5 -24 -4
-5 -2 -5 4 -2 7 4 13 -4 16 -23 3 -16 0 -32 -6 -34 -7 -3 -6 -5 2 -5 6 -1 12
-9 12 -19 0 -37 44 -74 94 -79 91 -11 135 34 139 142 2 30 0 55 -3 55 -3 0 -7
17 -8 38 -3 44 -9 87 -12 87 -1 0 -3 14 -5 30 -2 17 -10 50 -18 75 -8 25 -16
50 -17 55 -3 11 -23 61 -43 108 -7 15 -15 27 -18 27 -3 0 -6 6 -6 13 0 13 -63
110 -75 115 -4 2 -8 8 -8 13 0 13 -11 25 -96 112 -82 84 -134 130 -134 120 0
-5 -4 -3 -8 2 -14 20 -81 65 -95 65 -9 0 -17 4 -19 8 -2 6 -87 51 -108 57 -3
1 -12 4 -20 8 -31 13 -156 46 -190 51 -171 24 -213 25 -248 7z m378 -326 c-33
-19 -46 -19 -30 0 7 8 22 15 34 15 20 -1 20 -2 -4 -15z m20 -13 c0 -5 7 -9 15
-10 8 -1 22 -3 30 -4 10 -1 12 -5 5 -13 -5 -7 -8 -14 -5 -16 2 -3 -6 -11 -18
-18 -12 -8 -19 -10 -15 -6 4 5 3 14 -3 22 -9 9 -8 13 0 13 6 0 11 -6 11 -12 0
-9 3 -8 10 2 9 15 -7 33 -21 24 -4 -2 -12 3 -19 11 -9 10 -9 15 -1 15 6 0 11
-4 11 -8z m135 -102 c4 -6 3 -9 -2 -8 -4 1 -19 -4 -33 -11 l-25 -12 25 20 c30
24 27 24 35 11z m-905 -136 c0 4 12 -4 27 -18 15 -14 24 -29 20 -32 -4 -4 -14
1 -22 12 -12 15 -14 15 -9 2 10 -29 84 -70 84 -47 0 6 5 7 10 4 15 -9 1 -27
-16 -21 -7 3 -16 1 -19 -4 -7 -12 -26 -13 -24 -2 3 19 -2 32 -12 32 -8 0 -8
-4 0 -14 7 -9 8 -17 3 -20 -11 -7 -25 21 -17 34 3 5 -6 7 -20 6 -13 -2 -22 1
-19 5 3 5 0 9 -7 9 -7 0 -9 3 -6 7 4 3 -1 12 -11 20 -16 12 -15 13 3 6 19 -6
19 -6 2 14 -22 25 -10 39 15 16 10 -9 18 -13 18 -9z m340 16 c0 -5 -2 -10 -4
-10 -3 0 -8 5 -11 10 -3 6 -1 10 4 10 6 0 11 -4 11 -10z m58 -30 c6 0 12 -9
12 -20 0 -11 9 -28 20 -37 18 -16 18 -18 3 -35 -12 -14 -19 -15 -24 -6 -6 9
-11 9 -22 -1 -12 -9 -21 -8 -48 8 -28 17 -34 18 -54 5 -19 -13 -24 -12 -38 4
-10 10 -14 23 -10 27 5 5 -1 3 -12 -5 -19 -14 -19 -14 -5 5 14 19 14 19 -2 6
-10 -7 -15 -17 -12 -22 3 -5 0 -9 -6 -9 -7 0 -9 7 -6 16 3 9 2 12 -5 9 -6 -4
-8 -14 -5 -22 3 -8 2 -12 -3 -8 -5 3 -8 -5 -7 -18 2 -18 -2 -23 -17 -22 -11 1
-30 -9 -43 -22 -23 -23 -51 -32 -39 -13 3 6 -1 7 -10 4 -9 -4 -15 -3 -14 2 1
5 1 16 0 24 -1 12 -4 11 -18 -2 -13 -13 -14 -20 -5 -31 7 -8 9 -18 5 -23 -4
-5 -1 -3 7 4 8 6 19 12 25 12 5 0 4 -4 -4 -9 -8 -5 -15 -19 -16 -30 -1 -11 2
-18 7 -15 4 3 8 1 8 -4 0 -18 -28 -21 -50 -5 -12 9 -19 21 -16 30 5 11 2 13
-11 9 -14 -6 -15 -5 -6 5 10 10 15 9 28 -1 10 -8 15 -9 15 -1 0 6 -11 18 -25
27 -14 9 -25 21 -25 26 0 5 7 2 16 -7 9 -9 19 -13 22 -10 4 3 0 10 -7 14 -7 5
-11 13 -7 19 3 6 -2 15 -11 21 -15 8 -13 9 10 7 16 -2 33 -9 38 -17 7 -12 9
-12 9 1 0 12 2 12 9 2 6 -10 10 -10 20 2 13 15 41 11 41 -6 0 -5 -4 -6 -10 -3
-5 3 -10 1 -10 -5 0 -7 -7 -10 -17 -6 -15 5 -15 3 2 -9 18 -14 21 -13 42 12
12 16 22 22 23 14 0 -11 3 -11 15 -1 12 10 13 16 4 26 -8 10 -9 18 0 27 6 8 7
17 3 21 -4 4 -2 6 3 5 6 -2 19 2 30 7 29 16 66 11 99 -11 27 -18 29 -18 42 -1
7 10 10 25 7 34 -5 12 -1 14 18 9 13 -4 30 -7 37 -7z m-425 -63 c3 -8 -1 -14
-8 -14 -7 0 -11 6 -8 14 3 7 6 13 8 13 2 0 5 -6 8 -13z m37 -7 c0 -5 -5 -10
-11 -10 -5 0 -7 5 -4 10 3 6 8 10 11 10 2 0 4 -4 4 -10z m260 -40 c0 6 5 8 11
4 8 -4 3 -11 -12 -20 -13 -7 -27 -10 -31 -8 -11 7 -29 -33 -22 -50 7 -18 -28
-39 -50 -30 -12 5 -15 2 -10 -12 3 -11 2 -15 -3 -9 -12 15 -47 19 -38 5 6 -9
2 -9 -12 -1 -11 6 -23 8 -26 5 -3 -3 -11 5 -18 18 -6 12 -8 20 -4 16 4 -4 14
-1 21 7 14 14 54 9 54 -6 0 -12 -14 -11 -26 1 -6 6 -13 3 -21 -8 -9 -15 -7
-18 11 -20 17 -1 18 1 6 9 -12 8 -10 9 7 4 12 -3 24 -1 28 5 4 7 12 7 26 0 10
-6 19 -8 19 -6 0 3 -12 12 -27 20 -16 8 -23 15 -18 16 6 0 22 -7 37 -14 17 -9
30 -11 34 -5 3 5 0 8 -7 7 -6 -2 -14 3 -16 10 -3 7 1 11 7 10 7 -2 15 3 17 10
3 6 0 12 -7 12 -6 0 -9 -4 -6 -8 3 -5 -1 -9 -9 -9 -11 0 -12 4 -4 13 6 7 7 18
3 25 -4 7 3 19 17 30 24 19 24 18 47 -7 12 -14 22 -20 22 -14z m-103 -38 c-1
-13 -9 -19 -29 -19 -22 0 -25 3 -17 14 6 7 15 10 20 7 5 -3 9 0 9 5 0 6 4 11
9 11 6 0 9 -8 8 -18z m-120 -7 c0 -8 -4 -12 -9 -9 -4 3 -8 9 -8 15 0 5 4 9 8
9 5 0 9 -7 9 -15z m-77 -15 c0 -5 -2 -10 -4 -10 -3 0 -8 5 -11 10 -3 6 -1 10
4 10 6 0 11 -4 11 -10z m7 -72 c-3 -7 -5 -2 -5 12 0 14 2 19 5 13 2 -7 2 -19
0 -25z m237 6 c5 -13 4 -14 -7 -6 -8 7 -18 8 -22 4 -5 -4 -5 -1 -1 6 10 17 23
15 30 -4z m-186 -39 c-3 -3 -9 2 -12 12 -6 14 -5 15 5 6 7 -7 10 -15 7 -18z
m-48 9 c0 -8 -19 -13 -24 -6 -3 5 1 9 9 9 8 0 15 -2 15 -3z m1204 -86 c-3 -4
-1 -8 5 -8 5 0 13 5 16 10 8 14 25 13 25 -2 0 -6 -3 -8 -7 -5 -3 4 -17 -3 -30
-15 -13 -12 -23 -17 -24 -12 0 5 -2 16 -4 25 -1 9 3 16 11 16 7 0 11 -4 8 -9z"/>
<path d="M1455 2351 c11 -13 19 -25 18 -27 -7 -10 -2 -22 11 -27 10 -4 13 -1
9 9 -3 7 -10 14 -17 14 -8 0 -8 2 0 8 8 5 3 14 -15 26 l-26 20 20 -23z"/>
<path d="M1835 2330 c3 -5 8 -10 11 -10 2 0 4 5 4 10 0 6 -5 10 -11 10 -5 0
-7 -4 -4 -10z"/>
<path d="M1855 2311 c-3 -11 -9 -20 -13 -19 -4 1 -18 -3 -31 -9 -20 -8 -21
-11 -8 -16 10 -4 17 -2 17 4 0 5 6 4 14 -3 8 -7 12 -17 9 -21 -3 -5 9 -1 27 8
26 13 29 19 19 31 -9 12 -14 12 -20 2 -4 -6 -5 -16 -3 -20 3 -4 1 -8 -4 -8
-18 0 -20 13 -5 36 9 14 13 27 10 30 -3 3 -8 -4 -12 -15z"/>
<path d="M1690 2308 c0 -6 -3 -8 -7 -5 -8 8 -43 -22 -43 -37 0 -6 7 0 16 12 8
12 19 20 24 17 5 -3 12 -1 15 5 5 8 11 7 21 -1 7 -6 12 -15 9 -19 -3 -4 1 -13
9 -19 11 -9 18 -8 31 5 15 16 15 18 -5 38 -16 17 -22 18 -29 7 -6 -9 -11 -10
-15 -2 -9 15 -26 14 -26 -1z m69 -34 c-6 -8 -15 -12 -19 -9 -7 4 -7 13 -1 44
1 2 8 -2 16 -9 12 -10 13 -16 4 -26z"/>
<path d="M1743 2285 c0 -8 4 -12 9 -9 5 3 6 10 3 15 -9 13 -12 11 -12 -6z"/>
<path d="M1487 2226 c-3 -8 -2 -18 3 -21 13 -8 20 9 11 24 -6 10 -10 9 -14 -3z"/>
<path d="M1480 2133 c0 -7 8 -17 18 -22 14 -7 18 -6 18 10 0 10 -4 19 -8 19
-4 0 -8 -6 -8 -12 0 -9 -4 -8 -10 2 -6 9 -10 10 -10 3z"/>
<path d="M1687 2242 c-15 -17 -16 -21 -3 -31 10 -8 16 -9 21 -1 3 6 10 8 15 5
11 -7 6 23 -6 35 -7 7 -16 4 -27 -8z m22 -18 c-6 -7 -15 -11 -21 -8 -5 3 -4
12 3 20 6 7 15 11 21 8 5 -3 4 -12 -3 -20z"/>
<path d="M1674 2678 c-19 -23 -19 -23 2 -5 11 9 24 14 29 10 4 -5 5 -2 1 5 -9
16 -10 16 -32 -10z"/>
<path d="M2035 2650 c-3 -5 -1 -10 4 -10 6 0 11 5 11 10 0 6 -2 10 -4 10 -3 0
-8 -4 -11 -10z"/>
<path d="M1714 2639 c-3 -6 -2 -15 3 -20 5 -5 9 -1 9 11 0 23 -2 24 -12 9z"/>
<path d="M1750 2631 c0 -6 4 -13 10 -16 6 -3 7 1 4 9 -7 18 -14 21 -14 7z"/>
<path d="M1556 2603 c-6 -14 -5 -15 5 -6 7 7 10 15 7 18 -3 3 -9 -2 -12 -12z"/>
<path d="M1630 2610 c0 -5 5 -10 11 -10 5 0 7 5 4 10 -3 6 -8 10 -11 10 -2 0
-4 -4 -4 -10z"/>
<path d="M1710 2590 c0 -5 5 -10 11 -10 5 0 7 5 4 10 -3 6 -8 10 -11 10 -2 0
-4 -4 -4 -10z"/>
<path d="M1589 2553 c-13 -16 -12 -17 4 -4 9 7 17 15 17 17 0 8 -8 3 -21 -13z"/>
<path d="M1710 2552 c0 -5 7 -9 15 -9 8 0 12 4 9 9 -3 4 -9 8 -15 8 -5 0 -9
-4 -9 -8z"/>
<path d="M1459 2518 c-5 -18 -6 -38 -1 -34 7 8 12 36 6 36 -2 0 -4 -1 -5 -2z"/>
<path d="M1616 2508 c3 -4 11 -5 19 -1 21 7 19 12 -4 10 -11 0 -18 -5 -15 -9z"/>
<path d="M1756 2503 c-6 -14 -5 -15 5 -6 7 7 10 15 7 18 -3 3 -9 -2 -12 -12z"/>
<path d="M1711 2497 c-8 -10 -7 -14 2 -14 8 0 14 6 14 14 0 7 -1 13 -2 13 -2
0 -8 -6 -14 -13z"/>
<path d="M1644 2485 c-5 -12 -9 -13 -20 -4 -12 9 -13 9 -8 -4 3 -8 13 -18 22
-22 9 -3 13 -3 10 1 -4 4 -3 15 3 25 5 11 7 19 4 19 -3 0 -8 -7 -11 -15z"/>
<path d="M1507 2469 c7 -7 15 -10 18 -7 3 3 -2 9 -12 12 -14 6 -15 5 -6 -5z"/>
<path d="M1717 2438 c19 -21 31 -25 14 -5 -6 8 -9 16 -6 19 3 2 -2 5 -10 5
-13 0 -13 -3 2 -19z"/>
<path d="M1613 2437 c0 -8 6 -14 14 -14 9 0 10 4 2 14 -6 7 -12 13 -14 13 -1
0 -2 -6 -2 -13z"/>
<path d="M1499 2423 c-13 -16 -12 -17 3 -5 9 8 23 10 29 6 8 -4 9 -3 5 4 -10
17 -21 15 -37 -5z"/>
<path d="M1670 2428 c0 -6 3 -8 7 -5 3 4 13 1 22 -6 14 -11 14 -10 2 6 -15 20
-31 22 -31 5z"/>
<path d="M1613 2395 c0 -8 4 -12 9 -9 5 3 6 10 3 15 -9 13 -12 11 -12 -6z"/>
<path d="M1640 2401 c0 -6 4 -13 10 -16 6 -3 7 1 4 9 -7 18 -14 21 -14 7z"/>
<path d="M1470 2388 c0 -4 4 -8 9 -8 6 0 12 4 15 8 3 5 -1 9 -9 9 -8 0 -15 -4
-15 -9z"/>
<path d="M1707 2389 c7 -7 15 -10 18 -7 3 3 -2 9 -12 12 -14 6 -15 5 -6 -5z"/>
<path d="M1521 2355 c13 -13 28 -25 33 -25 5 0 -3 11 -18 25 -35 32 -45 32
-15 0z"/>
<path d="M1758 2373 c7 -3 16 -2 19 1 4 3 -2 6 -13 5 -11 0 -14 -3 -6 -6z"/>
<path d="M1776 2345 c4 -8 8 -15 10 -15 2 0 4 7 4 15 0 8 -4 15 -10 15 -5 0
-7 -7 -4 -15z"/>
<path d="M1950 2270 c-7 -16 -18 -35 -26 -41 -8 -6 -14 -16 -14 -22 0 -6 7 -1
16 11 14 21 62 33 49 12 -3 -5 -1 -10 5 -10 7 0 9 8 4 22 -6 21 -5 21 10 9 14
-12 19 -12 29 -1 10 10 9 12 -5 7 -11 -4 -24 2 -36 18 l-20 25 -12 -30z m25
-11 c-10 -15 -25 -10 -19 6 4 8 10 12 15 9 5 -3 7 -10 4 -15z"/>
<path d="M1992 2284 c10 -10 20 -16 22 -13 3 3 -5 11 -17 18 -21 13 -21 12 -5
-5z"/>
<path d="M2030 2228 c0 -4 4 -8 9 -8 6 0 12 4 15 8 3 5 -1 9 -9 9 -8 0 -15 -4
-15 -9z"/>
<path d="M2068 2213 c6 -3 10 -9 7 -13 -3 -5 0 -12 7 -16 7 -4 10 -4 6 1 -4 4
-4 13 2 19 6 8 2 12 -13 13 -12 0 -16 -1 -9 -4z"/>
<path d="M1933 2180 c1 -21 10 -18 13 5 1 8 -2 15 -6 15 -5 0 -8 -9 -7 -20z"/>
<path d="M2110 2190 c0 -5 5 -10 11 -10 5 0 7 5 4 10 -3 6 -8 10 -11 10 -2 0
-4 -4 -4 -10z"/>
<path d="M1720 2156 c0 -2 7 -7 16 -10 8 -3 12 -2 9 4 -6 10 -25 14 -25 6z"/>
<path d="M1866 2152 c-3 -5 1 -9 9 -9 8 0 12 4 9 9 -3 4 -7 8 -9 8 -2 0 -6 -4
-9 -8z"/>
<path d="M1993 2145 c0 -8 4 -12 9 -9 5 3 6 10 3 15 -9 13 -12 11 -12 -6z"/>
<path d="M1791 2123 c7 -12 15 -20 18 -17 3 2 -3 12 -13 22 -17 16 -18 16 -5
-5z"/>
<path d="M1741 2114 c0 -11 3 -14 6 -6 3 7 2 16 -1 19 -3 4 -6 -2 -5 -13z"/>
<path d="M2685 1950 c-3 -6 1 -7 9 -4 18 7 21 14 7 14 -6 0 -13 -4 -16 -10z"/>
</g>
</svg>
